# xmcd CD database file
#
# Track frame offsets:
#	150
#	18707
#	41240
#	56633
#	75751
#	94275
#	111602
#	125542
#	141489
#	166073
#	180963
#	196275
#	213090
#	230078
#	248789
#	264927
#	284771
#	300861
#	322702
#	342179
#
# Disc length: 4834 seconds
#
# Revision: 0
# Processed by: cddbd v1.5.2PL0 Copyright (c) Steve Scherf et al.
# Submitted via: Feurio! 1.68 - http://www.feurio.com
#
DISCID=1812e014
DTITLE=BBC Blues Sessions   Volume 7 - Ben Waters Band, Johnny Dickson, 
DTITLE=Stephen Dale Petit, Sonny Black, Mike Harrison, Doug Macleod
DYEAR=1900
DGENRE=
TTITLE0=Ben Waters Band - Tiny Planet
TTITLE1=Ben Waters Band - This World Is Going To End
TTITLE2=Ben Waters Band - Give It A Bone
TTITLE3=Johnny Dickinson - Beach Road
TTITLE4=Johnny Dickinson - Ocean Blues
TTITLE5=Johnny Dickinson - Into The Deep
TTITLE6=Stephen Dale Petit - Steppin' Out
TTITLE7=Stephen Dale Petit - Sacramento
TTITLE8=Stephen Dale Petit - As The Years Go Passing By
TTITLE9=Stephen Dale Petit - 7 Cent Cotton
TTITLE10=Sonny Black - Kelly's Blues
TTITLE11=Sonny Black - Paris After Dark
TTITLE12=Sonny Black - Independence
TTITLE13=Mike Harrison - You Were Never Mine
TTITLE14=Mike Harrison - I Can Give You Everything
TTITLE15=Mike Harrison - Sinner's Prayer
TTITLE16=Doug MacLeod - You Can't Take My Blues
TTITLE17=Doug MacLeod - My Good Girl Blues
TTITLE18=Doug MacLeod - Bus With No Destination
TTITLE19=Doug MacLeod - Big City Woman
EXTD=
EXTT0=
EXTT1=
EXTT2=
EXTT3=
EXTT4=
EXTT5=
EXTT6=
EXTT7=
EXTT8=
EXTT9=
EXTT10=
EXTT11=
EXTT12=
EXTT13=
EXTT14=
EXTT15=
EXTT16=
EXTT17=
EXTT18=
EXTT19=
PLAYORDER=
